G04*
G04 #@! TF.GenerationSoftware,Altium Limited,Altium Designer,23.1.1 (15)*
G04*
G04 Layer_Color=65535*
%FSLAX44Y44*%
%MOMM*%
G71*
G04*
G04 #@! TF.SameCoordinates,D0F7A24C-D961-4E1D-B503-D57C0314947E*
G04*
G04*
G04 #@! TF.FilePolarity,Positive*
G04*
G01*
G75*
%ADD10C,0.1000*%
%ADD11C,0.2000*%
%ADD12C,0.2540*%
D10*
X-962660Y-222860D02*
G03*
X-962660Y-223860I0J-500D01*
G01*
D02*
G03*
X-962660Y-222860I0J500D01*
G01*
X-607370Y-505460D02*
G03*
X-608370Y-505460I-500J0D01*
G01*
D02*
G03*
X-607370Y-505460I500J0D01*
G01*
X-144780Y-375580D02*
G03*
X-144780Y-376580I0J-500D01*
G01*
D02*
G03*
X-144780Y-375580I0J500D01*
G01*
X-652140Y-642620D02*
G03*
X-653140Y-642620I-500J0D01*
G01*
D02*
G03*
X-652140Y-642620I500J0D01*
G01*
X-322580Y-460730D02*
G03*
X-322580Y-461730I0J-500D01*
G01*
D02*
G03*
X-322580Y-460730I0J500D01*
G01*
D11*
X-751120Y-621030D02*
X-720370D01*
X-823870D02*
X-793120D01*
X-783120Y-611030D01*
X-793120Y-631030D02*
Y-611030D01*
Y-631030D02*
X-751120D01*
Y-611030D01*
X-793120D02*
X-751120D01*
X-825140Y-557530D02*
X-794390D01*
X-752390D02*
X-721640D01*
X-762390Y-567530D02*
X-752390Y-557530D01*
Y-567530D02*
Y-547530D01*
X-794390D02*
X-752390D01*
X-794390Y-567530D02*
Y-547530D01*
Y-567530D02*
X-752390D01*
X-196210Y-62230D02*
Y-30280D01*
X-90810D01*
Y-77180D02*
Y-30280D01*
X-604170Y-350520D02*
X-538170D01*
X-616520Y-248920D02*
X-538170D01*
X-1031660Y-229510D02*
X-893660D01*
X-1031660Y-400410D02*
Y-229510D01*
Y-400410D02*
X-893660D01*
Y-229510D01*
X-544870Y-525460D02*
Y-515460D01*
X-599870Y-525460D02*
X-544870D01*
X-599870D02*
Y-515460D01*
X-544870Y-495460D02*
Y-485460D01*
X-599870D02*
X-544870D01*
X-599870Y-495460D02*
Y-485460D01*
X-516730Y-85090D02*
X-480230D01*
X-624230D02*
X-587730D01*
Y-96590D02*
Y-73590D01*
Y-96590D02*
X-516730D01*
Y-73590D01*
X-587730D02*
X-516730D01*
X-213780Y-369930D02*
Y-199030D01*
X-75780D01*
Y-369930D02*
Y-199030D01*
X-213780Y-369930D02*
X-75780D01*
X-552140Y-787620D02*
X-522140D01*
X-552140Y-817620D02*
X-522140D01*
X-602140D02*
X-572140D01*
X-602140Y-787620D02*
X-572140D01*
X-552140Y-777620D02*
X-532140D01*
X-592140D02*
X-572140D01*
X-532140D02*
Y-757620D01*
Y-777620D02*
X-522140Y-787620D01*
Y-817620D02*
Y-787620D01*
X-532140Y-827620D02*
X-522140Y-817620D01*
X-552140Y-827620D02*
X-532140D01*
X-552140D02*
Y-767620D01*
X-572140D02*
X-552140D01*
X-572140Y-827620D02*
Y-767620D01*
X-592140Y-827620D02*
X-572140D01*
X-602140Y-817620D02*
X-592140Y-827620D01*
X-602140Y-817620D02*
Y-787620D01*
X-592140Y-777620D01*
Y-757620D01*
X-602140Y-747620D02*
X-522140D01*
X-612140Y-707620D02*
X-512140D01*
X-522140Y-747620D02*
Y-677620D01*
X-532140Y-757620D02*
X-522140Y-747620D01*
X-592140Y-757620D02*
X-532140D01*
X-602140Y-747620D02*
X-592140Y-757620D01*
X-602140Y-747620D02*
Y-677620D01*
X-512140Y-707620D02*
Y-677620D01*
X-522140Y-717620D02*
X-512140Y-707620D01*
X-602140Y-717620D02*
X-522140D01*
X-612140Y-707620D02*
X-602140Y-717620D01*
X-612140Y-707620D02*
Y-677620D01*
X-647140D02*
Y-582620D01*
X-477140D01*
Y-677620D02*
Y-582620D01*
X-647140Y-677620D02*
X-477140D01*
X-982910Y-581380D02*
Y-510380D01*
X-1005910Y-581380D02*
X-982910D01*
X-1005910D02*
Y-510380D01*
X-982910D01*
X-994410D02*
Y-473880D01*
Y-617880D02*
Y-581380D01*
X-306830Y-521730D02*
Y-466730D01*
X-338330Y-521730D02*
X-306830D01*
X-338330D02*
Y-466730D01*
X-306830D01*
X-371210Y-309550D02*
Y-263190D01*
X-347610D01*
Y-309550D02*
Y-263190D01*
X-371210Y-309550D02*
X-347610D01*
X-371210Y-297750D02*
X-359410Y-309550D01*
Y-345490D02*
Y-309550D01*
Y-263190D02*
Y-227250D01*
X-583920Y-148520D02*
X-512920D01*
Y-171520D02*
Y-148520D01*
X-583920Y-171520D02*
X-512920D01*
X-583920D02*
Y-148520D01*
X-620420Y-160020D02*
X-583920D01*
X-512920D02*
X-476420D01*
D12*
X-822956Y-582933D02*
Y-598167D01*
X-815338D01*
X-812799Y-595628D01*
Y-585472D01*
X-815338Y-582933D01*
X-822956D01*
X-797564Y-598167D02*
X-807721D01*
X-797564Y-588011D01*
Y-585472D01*
X-800103Y-582933D01*
X-805182D01*
X-807721Y-585472D01*
X-822957Y-520703D02*
Y-535938D01*
X-815339D01*
X-812800Y-533398D01*
Y-523242D01*
X-815339Y-520703D01*
X-822957D01*
X-807722Y-535938D02*
X-802643D01*
X-805182D01*
Y-520703D01*
X-807722Y-523242D01*
X-186185Y-17273D02*
Y-7116D01*
X-188724Y-4577D01*
X-193803D01*
X-196342Y-7116D01*
Y-17273D01*
X-193803Y-19812D01*
X-188724D01*
X-191264Y-14734D02*
X-186185Y-19812D01*
X-188724D02*
X-186185Y-17273D01*
X-181107Y-19812D02*
X-176029D01*
X-178568D01*
Y-4577D01*
X-181107Y-7116D01*
X-618236Y-223271D02*
X-613158D01*
X-615697D01*
Y-238506D01*
X-618236D01*
X-613158D01*
X-595383Y-225810D02*
X-597923Y-223271D01*
X-603001D01*
X-605540Y-225810D01*
Y-235967D01*
X-603001Y-238506D01*
X-597923D01*
X-595383Y-235967D01*
X-590305Y-238506D02*
X-585227D01*
X-587766D01*
Y-223271D01*
X-590305Y-225810D01*
X-1029465Y-196093D02*
X-1034544D01*
X-1032004D01*
Y-208789D01*
X-1034544Y-211328D01*
X-1037083D01*
X-1039622Y-208789D01*
X-1024387Y-211328D02*
X-1019309D01*
X-1021848D01*
Y-196093D01*
X-1024387Y-198632D01*
X-601221Y-454664D02*
X-603760Y-452125D01*
X-608839D01*
X-611378Y-454664D01*
Y-464821D01*
X-608839Y-467360D01*
X-603760D01*
X-601221Y-464821D01*
X-596143Y-467360D02*
X-591065D01*
X-593604D01*
Y-452125D01*
X-596143Y-454664D01*
X-639826Y-62230D02*
Y-46995D01*
X-632209D01*
X-629669Y-49534D01*
Y-54612D01*
X-632209Y-57152D01*
X-639826D01*
X-634748D02*
X-629669Y-62230D01*
X-614434D02*
X-624591D01*
X-614434Y-52073D01*
Y-49534D01*
X-616973Y-46995D01*
X-622052D01*
X-624591Y-49534D01*
X-655066Y-549153D02*
Y-559310D01*
X-649988Y-564388D01*
X-644909Y-559310D01*
Y-549153D01*
X-639831Y-564388D02*
Y-549153D01*
X-632213D01*
X-629674Y-551692D01*
Y-556771D01*
X-632213Y-559310D01*
X-639831D01*
X-634753D02*
X-629674Y-564388D01*
X-624596D02*
X-619518D01*
X-622057D01*
Y-549153D01*
X-624596Y-551692D01*
X-636016Y-137160D02*
Y-121925D01*
X-628399D01*
X-625859Y-124464D01*
Y-129543D01*
X-628399Y-132082D01*
X-636016D01*
X-630938D02*
X-625859Y-137160D01*
X-620781Y-124464D02*
X-618242Y-121925D01*
X-613163D01*
X-610624Y-124464D01*
Y-127003D01*
X-613163Y-129543D01*
X-615703D01*
X-613163D01*
X-610624Y-132082D01*
Y-134621D01*
X-613163Y-137160D01*
X-618242D01*
X-620781Y-134621D01*
X-1007110Y-448056D02*
Y-432821D01*
X-999492D01*
X-996953Y-435360D01*
Y-440438D01*
X-999492Y-442978D01*
X-1007110D01*
X-1002032D02*
X-996953Y-448056D01*
X-991875D02*
X-986797D01*
X-989336D01*
Y-432821D01*
X-991875Y-435360D01*
X-211585Y-165613D02*
X-216664D01*
X-214125D01*
Y-178309D01*
X-216664Y-180848D01*
X-219203D01*
X-221742Y-178309D01*
X-196350Y-180848D02*
X-206507D01*
X-196350Y-170691D01*
Y-168152D01*
X-198889Y-165613D01*
X-203968D01*
X-206507Y-168152D01*
X-372364Y-182377D02*
Y-197612D01*
X-364747D01*
X-362207Y-195073D01*
Y-184916D01*
X-364747Y-182377D01*
X-372364D01*
X-357129Y-184916D02*
X-354590Y-182377D01*
X-349511D01*
X-346972Y-184916D01*
Y-187455D01*
X-349511Y-189995D01*
X-352051D01*
X-349511D01*
X-346972Y-192534D01*
Y-195073D01*
X-349511Y-197612D01*
X-354590D01*
X-357129Y-195073D01*
X-454917Y-435868D02*
X-457457Y-433329D01*
X-462535D01*
X-465074Y-435868D01*
Y-446025D01*
X-462535Y-448564D01*
X-457457D01*
X-454917Y-446025D01*
X-439682Y-448564D02*
X-449839D01*
X-439682Y-438407D01*
Y-435868D01*
X-442221Y-433329D01*
X-447300D01*
X-449839Y-435868D01*
M02*
