G04*
G04 #@! TF.GenerationSoftware,Altium Limited,Altium Designer,23.1.1 (15)*
G04*
G04 Layer_Physical_Order=2*
G04 Layer_Color=16711680*
%FSLAX44Y44*%
%MOMM*%
G71*
G04*
G04 #@! TF.SameCoordinates,D0F7A24C-D961-4E1D-B503-D57C0314947E*
G04*
G04*
G04 #@! TF.FilePolarity,Positive*
G04*
G01*
G75*
%ADD12C,0.2540*%
%ADD28C,1.0000*%
%ADD29C,1.1500*%
%ADD30R,1.1500X1.1500*%
%ADD31C,1.9200*%
%ADD32R,1.9200X1.9200*%
%ADD33C,1.1300*%
%ADD34R,1.1300X1.1300*%
%ADD35C,2.4000*%
%ADD36R,2.4000X2.4000*%
%ADD37C,1.2000*%
%ADD38R,1.2000X1.2000*%
%ADD39C,1.8000*%
%ADD40R,1.8000X1.8000*%
%ADD41R,1.2000X1.2000*%
%ADD42R,1.5750X1.5750*%
%ADD43C,1.5750*%
D12*
X-531470Y-287020D02*
X-516890Y-301600D01*
X-571500Y-325338D02*
X-570012Y-323850D01*
X-516890Y-322362D02*
Y-301600D01*
X-570012Y-323850D02*
X-518378D01*
X-571500Y-365542D02*
Y-325338D01*
X-518378Y-323850D02*
X-516890Y-322362D01*
X-718820Y-367030D02*
X-572988D01*
X-834390Y-482600D02*
X-718820Y-367030D01*
X-572988D02*
X-571500Y-365542D01*
X-962660Y-276860D02*
X-947420Y-261620D01*
X-610870D01*
X-535807Y-186556D01*
X-834390Y-557530D02*
Y-482600D01*
X-324068Y-421640D02*
X-322580Y-423128D01*
Y-481730D02*
Y-423128D01*
X-447650Y-421640D02*
X-324068D01*
X-531470Y-337820D02*
X-447650Y-421640D01*
X-468408Y-186556D02*
X-466920Y-185069D01*
X-535807Y-186556D02*
X-468408D01*
X-466920Y-185069D02*
Y-160020D01*
X-215900D01*
X-597370Y-505460D02*
X-586448Y-516382D01*
X-332232D01*
X-322580Y-506730D01*
X-585470Y-312420D02*
X-531470D01*
X-610870Y-287020D02*
X-585470Y-312420D01*
X-597230Y-557530D02*
X-512140Y-642620D01*
X-712390Y-557530D02*
X-597230D01*
X-988060Y-621030D02*
X-833120D01*
X-994410Y-627380D02*
X-988060Y-621030D01*
X-689530Y-642620D02*
X-612140D01*
X-711120Y-621030D02*
X-689530Y-642620D01*
X-447870Y-62230D02*
X-168910D01*
X-470730Y-85090D02*
X-447870Y-62230D01*
X-215900Y-160020D02*
X-118110Y-62230D01*
D28*
X-359410Y-356870D02*
X-179070D01*
X-144780Y-322580D01*
X-947420Y-337820D02*
X-610870D01*
X-962660Y-353060D02*
X-947420Y-337820D01*
X-328900Y-246380D02*
X-144780D01*
X-359410Y-215870D02*
X-328900Y-246380D01*
X-531470Y-261620D02*
X-436220Y-356870D01*
X-359410D01*
D29*
X-711120Y-621030D02*
D03*
X-834390Y-557530D02*
D03*
D30*
X-833120Y-621030D02*
D03*
X-712390Y-557530D02*
D03*
D31*
X-118110Y-62230D02*
D03*
X-143510D02*
D03*
D32*
X-168910D02*
D03*
D33*
X-531470Y-261620D02*
D03*
Y-287020D02*
D03*
Y-312420D02*
D03*
Y-337820D02*
D03*
X-610870D02*
D03*
Y-312420D02*
D03*
Y-287020D02*
D03*
D34*
Y-261620D02*
D03*
D35*
X-962660Y-353060D02*
D03*
X-144780Y-246380D02*
D03*
D36*
X-962660Y-276860D02*
D03*
X-144780Y-322580D02*
D03*
D37*
X-547370Y-505460D02*
D03*
X-470730Y-85090D02*
D03*
X-633730D02*
D03*
X-994410Y-464380D02*
D03*
Y-627380D02*
D03*
X-322580Y-506730D02*
D03*
X-629920Y-160020D02*
D03*
X-466920D02*
D03*
D38*
X-597370Y-505460D02*
D03*
D39*
X-512140Y-642620D02*
D03*
X-562140D02*
D03*
D40*
X-612140D02*
D03*
D41*
X-322580Y-481730D02*
D03*
D42*
X-359410Y-356870D02*
D03*
D43*
Y-215870D02*
D03*
M02*
