G04*
G04 #@! TF.GenerationSoftware,Altium Limited,Altium Designer,23.1.1 (15)*
G04*
G04 Layer_Physical_Order=2*
G04 Layer_Color=16711680*
%FSLAX44Y44*%
%MOMM*%
G71*
G04*
G04 #@! TF.SameCoordinates,47C0FF0B-948B-4EB8-BC40-2B290CA5D41B*
G04*
G04*
G04 #@! TF.FilePolarity,Positive*
G04*
G01*
G75*
%ADD12C,0.2540*%
%ADD21R,2.4000X2.4000*%
%ADD22C,2.4000*%
%ADD23R,1.9800X1.9800*%
%ADD24C,1.9800*%
%ADD25R,1.2750X1.2750*%
%ADD26C,1.2750*%
%ADD27R,1.1000X1.1000*%
%ADD28C,1.1000*%
D12*
X664210Y-172720D02*
X781050D01*
X795020Y-158750D01*
X595430Y-172720D02*
X664210D01*
X524510Y-171650D02*
X595430Y-172720D01*
X939480Y-138750D02*
X971550Y-106680D01*
X795020Y-138750D02*
X939480D01*
X680240D02*
X795020D01*
X664210Y-122720D02*
X680240Y-138750D01*
X132080Y-181610D02*
X262890D01*
X285750Y-158750D01*
X409890D01*
X414020Y-154620D01*
X547940Y-122720D02*
X664210D01*
X524510Y-146150D02*
X547940Y-122720D01*
X422490Y-146150D02*
X524510D01*
X414020Y-154620D02*
X422490Y-146150D01*
X132080Y-105410D02*
X267410D01*
X285750Y-123750D01*
X296620Y-134620D02*
X414020D01*
X285750Y-123750D02*
X296620Y-134620D01*
X427990Y-120650D02*
X524510D01*
X414020Y-134620D02*
X427990Y-120650D01*
X795020Y-158750D02*
X947420D01*
X971550Y-182880D01*
D21*
X132080Y-181610D02*
D03*
X971550Y-182880D02*
D03*
D22*
X132080Y-105410D02*
D03*
X971550Y-106680D02*
D03*
D23*
X524510Y-120650D02*
D03*
D24*
Y-146150D02*
D03*
Y-171650D02*
D03*
D25*
X664210Y-172720D02*
D03*
X285750Y-123750D02*
D03*
D26*
X664210Y-122720D02*
D03*
X285750Y-158750D02*
D03*
D27*
X795020D02*
D03*
X414020Y-134620D02*
D03*
D28*
X795020Y-138750D02*
D03*
X414020Y-154620D02*
D03*
M02*
