G04*
G04 #@! TF.GenerationSoftware,Altium Limited,Altium Designer,23.1.1 (15)*
G04*
G04 Layer_Physical_Order=1*
G04 Layer_Color=255*
%FSLAX44Y44*%
%MOMM*%
G71*
G04*
G04 #@! TF.SameCoordinates,47C0FF0B-948B-4EB8-BC40-2B290CA5D41B*
G04*
G04*
G04 #@! TF.FilePolarity,Positive*
G04*
G01*
G75*
%ADD12C,0.2540*%
%ADD21R,2.4000X2.4000*%
%ADD22C,2.4000*%
%ADD23R,1.9800X1.9800*%
%ADD24C,1.9800*%
%ADD25R,1.2750X1.2750*%
%ADD26C,1.2750*%
%ADD27R,1.1000X1.1000*%
%ADD28C,1.1000*%
D12*
X1069345Y-187963D02*
Y-198120D01*
X1076963D01*
X1074423Y-193042D01*
Y-190502D01*
X1076963Y-187963D01*
X1082041D01*
X1084580Y-190502D01*
Y-195581D01*
X1082041Y-198120D01*
X1074423Y-182885D02*
X1084580Y-177807D01*
X1074423Y-172728D01*
X1084580Y-115572D02*
Y-113033D01*
X1082041Y-110493D01*
X1069345D01*
Y-118111D01*
X1071884Y-120650D01*
X1076963D01*
X1079502Y-118111D01*
Y-110493D01*
X1069345Y-105415D02*
X1079502D01*
X1074423D01*
X1071884Y-102876D01*
X1069345Y-100337D01*
Y-97797D01*
X1064267Y-80023D02*
X1079502D01*
Y-87641D01*
X1076963Y-90180D01*
X1071884D01*
X1069345Y-87641D01*
Y-80023D01*
X19050Y-170178D02*
Y-172717D01*
X21589Y-175257D01*
X34285D01*
Y-167639D01*
X31746Y-165100D01*
X26667D01*
X24128Y-167639D01*
Y-175257D01*
X34285Y-180335D02*
X24128D01*
X29207D01*
X31746Y-182874D01*
X34285Y-185413D01*
Y-187953D01*
X39363Y-205727D02*
X24128D01*
Y-198109D01*
X26667Y-195570D01*
X31746D01*
X34285Y-198109D01*
Y-205727D01*
X31747Y-73660D02*
X21590Y-78738D01*
X31747Y-83817D01*
Y-99052D02*
Y-91434D01*
X29207Y-88895D01*
X24129D01*
X21590Y-91434D01*
Y-99052D01*
X31747Y-114287D02*
Y-106669D01*
X29207Y-104130D01*
X24129D01*
X21590Y-106669D01*
Y-114287D01*
D21*
X132080Y-181610D02*
D03*
X971550Y-182880D02*
D03*
D22*
X132080Y-105410D02*
D03*
X971550Y-106680D02*
D03*
D23*
X524510Y-120650D02*
D03*
D24*
Y-146150D02*
D03*
Y-171650D02*
D03*
D25*
X664210Y-172720D02*
D03*
X285750Y-123750D02*
D03*
D26*
X664210Y-122720D02*
D03*
X285750Y-158750D02*
D03*
D27*
X795020D02*
D03*
X414020Y-134620D02*
D03*
D28*
X795020Y-138750D02*
D03*
X414020Y-154620D02*
D03*
M02*
